<svg width="141" height="141" viewBox="0 0 141 141" fill="none" xmlns="http://www.w3.org/2000/svg">

    <path
        d="M28.6401 13.5846
           C28.1158 13.9058 27.2759 14.6947 26.7734 15.3374
           C25.8938 16.4626 15.6902 34.5598 15.8524 34.707
           C15.9777 34.8207 22.7319 35.599 22.8289 35.511
           C22.9107 35.437 24.731 32.0422 31.3337 19.652
           C32.8471 16.8122 34.0854 14.3855 34.0854 14.26
           C34.0854 14.1343 33.6669 13.7999 33.1558 13.5168
           C31.8649 12.8022 29.8675 12.8323 28.6401 13.5846
           Z"
        fill-rule="evenodd"
        clip-rule="evenodd"
        fill="black"
    />

    <path
        d="M37.3265 14.2338
           C37.0802 14.7695 36.114 16.6519 35.1798 18.4175
           C34.2456 20.1828 33.5445 21.6846 33.6214 21.7544
           C33.6984 21.8245 36.6984 22.165 40.2879 22.5114
           C43.8774 22.8575 49.4529 23.4306 52.678 23.7846
           C55.9031 24.1388 62.4677 24.836 67.266 25.3341
           C72.0643 25.8322 77.4061 26.4131 79.1367 26.6247
           C81.707 26.9389 91.4407 27.8725 94.8291 28.1296
           C95.6354 28.1906 95.6729 28.1309 97.3537 24.0695
           C98.2922 21.8022 98.9535 19.859 98.8236 19.7512
           C98.6938 19.6435 93.1169 19.0096 86.4307 18.3425
           C79.7445 17.6751 73.8235 17.0807 73.2729 17.0212
           C72.7222 16.9617 69.8261 16.6706 66.837 16.3743
           C59.1013 15.6073 47.8122 14.3829 42.8992 13.7775
           C40.5882 13.4929 38.4901 13.26 38.2364 13.26
           C37.9733 13.26 37.582 13.6789 37.3265 14.2338
           Z"
        fill-rule="evenodd"
        clip-rule="evenodd"
        fill="black"
    />

    <path
        d="M101.73 21.5763
           C101.33 22.294 100.246 24.7773 99.3231 27.0945
           C98.4 29.4119 97.5061 31.5999 97.3368 31.957
           C96.5857 33.5426 93.5428 41.6163 93.6572 41.7202
           C93.7665 41.8194 95.0499 42.0523 99.4466 42.7703
           L100.306 42.9108
           L103.701 33.8633
           C107.857 22.789 107.839 22.8516 107.191 21.9533
           C106.599 21.1338 104.671 20.2851 103.383 20.2771
           C102.558 20.2719 102.38 20.4119 101.73 21.5763
           Z"
        fill-rule="evenodd"
        clip-rule="evenodd"
        fill="black"
    />

    <path
        d="M109.307 27.1056
           C108.609 29.1311 107.415 32.366 106.652 34.2941
           C105.89 36.2222 104.763 39.2587 104.147 41.0419
           C103.087 44.1131 103.054 44.3066 103.525 44.7148
           C104.011 45.1363 115.943 53.1513 121.451 56.7565
           C122.979 57.7562 125.281 59.2852 126.568 60.1541
           C130.022 62.4866 130.071 62.5032 130.49 61.492
           C130.996 60.2712 131.182 53.5144 130.786 50.7669
           C129.268 40.2496 121.106 29.1065 110.874 23.5841
           C110.692 23.4854 110.082 24.8558 109.307 27.1056
           Z"
        fill-rule="evenodd"
        clip-rule="evenodd"
        fill="black"
    />

    <path
        d="M29.3549 29.4633
           C27.8655 32.2483 26.6149 34.794 26.576 35.1202
           C26.4951 35.7992 25.3377 35.6346 38.09 36.7569
           C42.259 37.1238 48.0178 37.6554 50.8874 37.9382
           C53.7567 38.221 59.9995 38.8009 64.7603 39.227
           C69.5209 39.6531 75.2179 40.1748 77.4204 40.3862
           C79.6229 40.5979 82.9696 40.8934 84.8575 41.0432
           C86.7453 41.193 88.6844 41.3808 89.1664 41.4602
           C89.7219 41.5519 90.1512 41.4787 90.3388 41.2603
           C90.6558 40.8918 94.5139 31.1444 94.3777 31.0562
           C94.1867 30.9318 87.4559 30.1265 84.5714 29.8827
           C81.0577 29.5858 80.5657 29.5368 75.7042 28.9992
           C73.8163 28.7904 70.4697 28.4357 68.2672 28.2108
           C59.5295 27.3194 49.2269 26.2222 46.2421 25.8651
           C44.5116 25.6584 42.1946 25.4198 41.0934 25.3354
           C38.5436 25.1396 34.2224 24.7124 33.0027 24.5356
           L32.0628 24.3993
           L29.3549 29.4633
           Z"
        fill-rule="evenodd"
        clip-rule="evenodd"
        fill="black"
    />

    <path
        d="M18.1696 37.8702
           C18.2708 38.0187 19.4156 38.4937 20.7133 38.9258
           C24.2811 40.1133 38.2602 45.1685 40.3059 46.0111
           C40.9741 46.2862 41.8451 46.6235 42.2418 46.7603
           C42.8551 46.972 52.801 48.3516 63.8335 49.7555
           C65.4854 49.9658 69.6688 50.5423 73.1298 51.0367
           C79.2471 51.9106 83.4942 52.5065 94.4398 54.027
           C97.3503 54.431 103.582 55.357 108.288 56.0841
           C112.995 56.8115 116.884 57.3709 116.933 57.3272
           C117.019 57.2491 111.516 53.4533 103.455 48.0309
           L99.3634 45.2781
           L96.2582 44.9584
           C94.5499 44.7826 91.4793 44.4803 89.4341 44.2866
           C87.3889 44.0929 82.562 43.6356 78.7076 43.2702
           C74.8532 42.9051 71.056 42.5499 70.2694 42.4808
           C69.4828 42.4117 66.3936 42.1206 63.4045 41.8337
           C56.2143 41.1434 39.4169 39.6028 32.0831 38.9611
           C24.4439 38.2924 20.79 37.9496 19.2422 37.7567
           C18.4053 37.6523 18.0472 37.6902 18.1696 37.8702
           Z"
        fill-rule="evenodd"
        clip-rule="evenodd"
        fill="black"
    />

    <path
        d="M65.5647 54.653
           C64.0226 55.1579 62.9134 56.5892 62.8933 58.1003
           C62.8616 60.4689 64.496 62.0771 66.9368 62.0789
           C69.3513 62.0809 71.179 60.7314 71.4748 58.728
           C71.8713 56.0455 68.4714 53.7013 65.5647 54.653
           Z"
        fill-rule="evenodd"
        clip-rule="evenodd"
        fill="black"
    />

    <path
        d="M85.5726 57.5924
           C83.2914 58.5129 81.3286 59.3496 81.211 59.4519
           C81.0408 59.5997 79.8518 66.4856 79.8518 67.3226
           C79.8518 67.4384 82.6839 67.5332 86.1452 67.5332
           H92.4387
           L93.709 65.9668
           C95.6231 63.6061 95.6312 63.3812 93.8763 61.3009
           C93.4547 60.801 92.5007 59.4953 91.7565 58.3992
           C91.0119 57.3031 90.2493 56.2966 90.0617 56.1626
           C89.8328 55.9992 88.3514 56.4711 85.5726 57.5924
           Z"
        fill-rule="evenodd"
        clip-rule="evenodd"
        fill="black"
    />

    <path
        d="M43.9523 56.4721
           C43.7959 56.6728 42.6057 58.179 41.3079 59.8191
           C40.0101 61.4593 38.9481 62.9322 38.9481 63.0921
           C38.9481 63.2524 39.5393 64.3763 40.2621 65.5898
           L41.5765 67.7963
           L47.7707 67.6288
           C51.1777 67.5366 53.9972 67.4387 54.0361 67.4111
           C54.1148 67.3556 52.7075 59.682 52.6013 59.5883
           C52.4429 59.4478 44.5974 56.1073 44.4263 56.1073
           C44.3222 56.1073 44.1088 56.2714 43.9523 56.4721
           Z"
        fill-rule="evenodd"
        clip-rule="evenodd"
        fill="black"
    />

    <path
        d="M104.666 61.841
           C104.046 62.1685 103.307 63.4277 103.307 64.1548
           C103.307 65.0906 104.427 66.7586 105.25 67.0463
           C107.369 67.7885 109.886 66.4225 109.886 64.53
           C109.886 63.4391 109.237 62.1999 108.471 61.828
           C107.769 61.4865 105.32 61.4948 104.666 61.841
           Z"
        fill-rule="evenodd"
        clip-rule="evenodd"
        fill="black"
    />

    <path
        d="M28.4075 62.7361
           C27.3303 63.559 27.0586 64.6011 27.6092 65.7975
           C28.3515 67.4106 30.239 67.7747 31.7751 66.6012
           C32.4862 66.058 32.6552 65.7305 32.6552 64.8961
           C32.6552 63.5933 32.2879 62.9685 31.2307 62.472
           C30.0542 61.9199 29.3955 61.9815 28.4075 62.7361
           Z"
        fill-rule="evenodd"
        clip-rule="evenodd"
        fill="black"
    />

    <path
        d="M11.6739 70.063
           L10 70.1575
           L10.1579 70.9877
           C11.224 76.6007 12.4931 83.1937 13.0921 86.2302
           C13.5006 88.3011 14.0718 91.2225 14.3612 92.7222
           C14.6507 94.2218 15.2259 97.0848 15.6396 99.0844
           C16.0532 101.084 16.6928 104.297 17.0609 106.226
           C20.5517 124.519 20.6847 125.081 21.7497 126.049
           L22.6538 126.87
           L29.29 126.949
           C32.9398 126.992 36.2113 126.963 36.5599 126.883
           C36.9086 126.804 37.2707 126.518 37.3651 126.249
           C37.5173 125.814 35.9218 119.029 34.3497 113.425
           C34.0382 112.314 33.5348 110.327 33.231 109.01
           C32.9272 107.693 32.0877 104.336 31.3657 101.551
           C30.6438 98.7662 29.0932 92.5144 27.9201 87.6584
           C26.7473 82.8024 25.6673 78.4203 25.5202 77.9204
           C25.3732 77.4205 24.9098 75.6093 24.4911 73.8954
           C24.072 72.1815 23.6092 70.5748 23.4625 70.3248
           C23.2225 69.9158 22.7022 69.8753 18.2717 69.9194
           C15.5635 69.9464 12.5944 70.0111 11.6739 70.063
           Z"
        fill-rule="evenodd"
        clip-rule="evenodd"
        fill="black"
    />

    <path
        d="M63.7057 70.1079
           C63.3962 70.5626 61.5255 75.3924 61.6242 75.482
           C61.7183 75.5674 68.3638 72.8556 68.6116 72.6305
           C68.6796 72.5687 70.3527 73.2119 72.3289 74.0597
           C74.3052 74.9079 75.9545 75.5682 75.9937 75.5275
           C76.0329 75.4867 75.5251 74.2265 74.8658 72.7268
           L73.6667 70.0002
           L68.7712 69.9293
           C65.857 69.8869 63.8067 69.9594 63.7057 70.1079
           Z"
        fill-rule="evenodd"
        clip-rule="evenodd"
        fill="black"
    />

    <path
        d="M76.9919 70.1949
           C76.9928 70.607 79.2208 75.979 80.7471 79.2487
           L81.9124 81.7455
           L77.9207 87.1689
           C71.2062 96.292 69.2646 98.6948 68.6075 98.6948
           C67.9565 98.6948 66.4748 96.8425 58.8773 86.5322
           L55.5596 82.0301
           L56.0796 80.8192
           C56.3653 80.1531 57.2481 78.0892 58.0407 76.2325
           C58.8336 74.3758 59.7512 72.243 60.0804 71.4933
           L60.6788 70.13
           H43.7181
           H26.7576
           L27.9624 75.3885
           C28.6249 78.2806 29.4496 81.7572 29.7945 83.114
           C30.1398 84.4708 31.1898 88.6777 32.128 92.4625
           C33.0662 96.2473 34.1612 100.629 34.5617 102.201
           C34.9618 103.772 35.3554 105.32 35.4358 105.641
           L35.5823 106.226
           H69.1196
           H102.657
           L103.402 103.824
           C103.812 102.503 104.331 100.779 104.556 99.9932
           C104.78 99.2077 105.671 96.3447 106.535 93.6311
           C107.399 90.9174 108.971 85.8926 110.03 82.4648
           C111.088 79.037 112.377 74.8886 112.894 73.2462
           C113.411 71.6037 113.774 70.1721 113.702 70.0651
           C113.63 69.9581 105.34 69.8703 95.281 69.8703
           C80.8398 69.8703 76.9914 69.9386 76.9919 70.1949
           Z"
        fill-rule="evenodd"
        clip-rule="evenodd"
        fill="black"
    />

    <path
        d="M116.917 70.1578
           C116.844 70.3567 116.508 71.4544 116.17 72.597
           C115.832 73.7396 114.612 77.7127 113.457 81.4261
           C112.303 85.1395 110.246 91.8003 108.887 96.2279
           C107.528 100.655 106.042 105.33 105.586 106.615
           C105.131 107.901 104.374 110.296 103.906 111.939
           C103.438 113.581 102.352 117.028 101.492 119.599
           C99.3728 125.935 99.4366 125.553 100.37 126.339
           L101.156 127
           L107.452 126.994
           C116.278 126.986 116.495 126.877 117.597 121.886
           C117.906 120.486 118.728 117.061 119.424 114.276
           C120.119 111.491 121.035 107.81 121.458 106.096
           C121.881 104.382 122.607 101.519 123.07 99.7336
           C125.019 92.2176 125.629 89.8449 126.307 87.1391
           C126.7 85.568 127.818 81.1537 128.792 77.3296
           C129.765 73.5056 130.512 70.3313 130.45 70.2757
           C130.388 70.2201 127.348 70.0892 123.694 69.9854
           C118.136 69.8272 117.029 69.8555 116.917 70.1578
           Z"
        fill-rule="evenodd"
        clip-rule="evenodd"
        fill="black"
    />

    <path
        d="M68.0495 76.0762
           C67.286 76.9001 65.2637 79.8187 65.2637 80.0968
           C65.2637 80.1851 66.8084 80.2575 68.6962 80.2575
           C70.5841 80.2575 72.1287 80.2033 72.1287 80.1368
           C72.1287 79.9444 69.5046 76.0081 69.1244 75.6306
           C68.8441 75.3522 68.6436 75.4353 68.0495 76.0762
           Z"
        fill-rule="evenodd"
        clip-rule="evenodd"
        fill="black"
    />

    <path
        d="M73.9508 77.9765
           C74.3724 78.4455 74.8632 79.0921 75.042 79.4136
           C75.2814 79.8439 75.6187 79.9979 76.3223 79.9979
           C77.1538 79.9979 77.2774 79.9127 77.2774 79.3393
           C77.2774 78.6852 76.7794 78.3967 73.8724 77.3673
           L73.1845 77.1237
           L73.9508 77.9765
           Z"
        fill-rule="evenodd"
        clip-rule="evenodd"
        fill="black"
    />

    <path
        d="M62.0555 78.0757
           C61.3138 78.4193 60.569 78.9339 60.4008 79.2193
           C60.1236 79.6896 60.1825 79.7371 61.0346 79.7283
           C61.8049 79.7203 62.1193 79.5284 62.7792 78.6628
           C63.2217 78.0822 63.5435 77.5722 63.4943 77.5293
           C63.4448 77.4865 62.7975 77.7324 62.0555 78.0757
           Z"
        fill-rule="evenodd"
        clip-rule="evenodd"
        fill="black"
    />

    <path
        d="M59.829 82.8774
           C59.829 83.0519 60.1739 83.6053 60.5956 84.1073
           C61.0172 84.609 61.7226 85.6132 62.1636 86.339
           C63.1811 88.0142 63.1814 87.6732 62.1645 84.9201
           C61.44 82.9579 61.2726 82.7157 60.5913 82.6424
           C60.1322 82.5928 59.829 82.6863 59.829 82.8774
           Z"
        fill-rule="evenodd"
        clip-rule="evenodd"
        fill="black"
    />

    <path
        d="M65.1716 85.2564
           C65.7125 86.5774 66.2657 87.9755 66.4016 88.3632
           C67.0898 90.3305 68.5206 93.2434 68.7085 93.0603
           C68.8896 92.8837 72.4147 83.2807 72.4147 82.9639
           C72.4147 82.9037 70.5638 82.8543 68.3018 82.8543
           H64.1885
           L65.1716 85.2564
           Z"
        fill-rule="evenodd"
        clip-rule="evenodd"
        fill="black"
    />

    <path
        d="M75.429 83.1789
           C75.0114 84.3654 73.9307 88.0479 74 88.0479
           C74.2094 88.0479 76.7053 83.6386 76.7053 83.2688
           C76.7053 82.7764 75.5981 82.6985 75.429 83.1789
           Z"
        fill-rule="evenodd"
        clip-rule="evenodd"
        fill="black"
    />

    <path
        d="M36.3737 109.294
           C36.3737 109.481 38.8557 119.215 39.3823 121.094
           L39.5828 121.809
           L68.6344 121.743
           L97.6858 121.677
           L98.749 118.431
           C100.052 114.453 101.591 109.483 101.591 109.252
           C101.591 109.159 86.917 109.082 68.9823 109.082
           C51.0476 109.082 36.3737 109.178 36.3737 109.294
           Z"
        fill-rule="evenodd"
        clip-rule="evenodd"
        fill="black"
    />

</svg>
